<svg xmlns="http://www.w3.org/2000/svg" width="331.2" height="120.7"><rect id="backgroundrect" width="100%" height="100%" x="0" y="0" fill="none" stroke="none"/>
    
<g class="currentLayer" style=""><title>Layer 1</title><path d="M151.7 120.7h-2.8V0h2.8v120.7zm37-87c-.4 2.8-1.8 5.3-3.8 7.3a9.95 9.95 0 0 1-6.8 2.4 10.5 10.5 0 0 1-10.2-7.2c-.9-2.7-1.4-5.6-1.3-8.4 0-2.5.4-4.9 1.1-7.3.7-2.2 2-4.2 3.9-5.6 2-1.4 4.4-2.2 6.9-2.1 2.2-.1 4.3.6 6 1.9a12 12 0 0 1 3.6 6l4.7-1.2c-.8-3.2-2.6-6.1-5.1-8.1-2.6-2-5.8-3-9.1-2.9-3.1 0-6.1.8-8.7 2.3a15.2 15.2 0 0 0-6.1 6.7c-1.5 3.2-2.2 6.8-2.1 10.3 0 3.5.6 6.9 1.9 10.2 1.1 2.9 3 5.4 5.5 7.2 2.8 1.8 6.1 2.6 9.4 2.5 3.4.1 6.8-1.1 9.5-3.3 2.8-2.5 4.7-5.8 5.4-9.4l-4.7-1.3zM214.1 47V30.9L228.4 9h-5.5L216 20.1c-1.5 2.5-2.8 4.7-3.9 6.7-1.1-2.1-2.3-4.3-3.6-6.4L201.4 9h-5.8l13.8 21.9V47h4.7zm32.1 0c1.9 0 3.9-.2 5.8-.6 1.4-.4 2.8-1 3.9-1.9 1.1-1 2-2.2 2.6-3.5.7-1.6 1.1-3.3 1.1-5 0-2.1-.6-4.1-1.8-5.7-1.2-1.7-3-2.9-5-3.4a9.18 9.18 0 0 0 5.1-8.1c0-1.8-.5-3.5-1.4-5-.9-1.6-2.3-2.8-3.9-3.5-2.1-.8-4.3-1.2-6.6-1.1h-13.5V47h13.7zm-9-33.5h7.2c1.8-.1 3.7.1 5.5.5 1 .3 1.9 1.1 2.4 2a6.56 6.56 0 0 1 0 6.6c-.7.9-1.6 1.6-2.7 1.9-1.5.4-3 .5-4.5.4h-7.8l-.1-11.4zm.1 16h8.3c1.8-.1 3.5.1 5.3.6 1.2.4 2.2 1.2 2.9 2.2.7 1.1 1 2.4 1 3.7 0 1.1-.2 2.2-.7 3.2-.4.8-1 1.6-1.8 2.1s-1.8.8-2.7 1c-1.1.1-2.2.2-3.2.2h-8.9l-.2-13zM292.9 47v-4.5h-22V29.6h19.8v-4.5h-19.8V13.6h21.2V9.1h-25.9V47h26.7zm11.4 0V30.2h5.5c.9 0 1.8 0 2.6.2s1.5.5 2.2 1c.9.7 1.7 1.6 2.4 2.5.9 1.2 2 3 3.4 5.2l4.8 7.9h6l-6.3-10.4a26.9 26.9 0 0 0-3.9-5c-.8-.8-1.8-1.4-2.8-1.9 3.4-.5 6-1.7 7.6-3.5 1.7-1.9 2.5-4.3 2.5-6.8 0-2-.5-4-1.5-5.7-.9-1.6-2.3-2.9-4-3.6-2.3-.8-4.8-1.1-7.3-1h-15.9V47h4.7zm0-33.7h11.4c2.7 0 4.6.6 5.8 1.7 1.2 1.1 1.9 2.7 1.9 4.4 0 1.2-.4 2.4-1 3.4-.6 1.1-1.6 1.9-2.8 2.3-1.6.5-3.4.8-5.1.7h-10.2V13.3zm-118.9 93.3a7.5 7.5 0 0 1-10.4-.4c-1.3-1.6-1.9-4.4-1.9-8.6 0-3.4.5-5.9 1.6-7.5 2-3 6-4.1 9.2-2.5.9.5 1.7 1.2 2.4 2 .5.8.9 1.6 1.1 2.5l10.2-2.3c-1-3.5-3.1-6.7-6-8.9-2.7-1.9-6.4-2.9-11.1-2.9-6 0-10.7 1.7-14 5.1-3.3 3.4-5 8.2-5 14.5 0 4.7.9 8.6 2.8 11.6 1.6 2.7 3.9 4.9 6.7 6.3 3.2 1.3 6.6 1.9 10 1.8 2.8.1 5.7-.4 8.3-1.5 2.2-1 4-2.5 5.5-4.4 1.6-2.2 2.7-4.6 3.2-7.2l-10.2-3.1c-.2 1.9-1.1 3.9-2.4 5.5zm42.7-4.9c.1 1.8-.5 3.5-1.7 4.9a7.27 7.27 0 0 1-9.4 0 6.61 6.61 0 0 1-1.7-4.8V78.6h-11.6v22.6c0 2.2.4 4.3 1.1 6.4.5 1.6 1.3 3.1 2.5 4.4 1.1 1.3 2.5 2.4 4 3.3 1.7.8 3.5 1.4 5.4 1.5 2 .2 4 .4 6 .4 2.8.1 5.5-.4 8.1-1.3a14.37 14.37 0 0 0 7.9-8.3c.7-2 1-4.2 1-6.3V78.6h-11.6v23.1zm19.2 14.8h11.6v-14.1h6.3c4.7 0 8.1-1.1 10.4-3.2 2.3-2.2 3.4-5.2 3.4-9 0-3.7-1-6.6-3.1-8.6s-5.2-3-9.4-3h-19.3l.1 37.9zm11.6-30.2h3.3c2.2 0 3.6.4 4.4 1.2.8.8 1.2 1.9 1.2 3 0 1.2-.5 2.3-1.4 3-.9.8-2.5 1.2-4.7 1.2h-2.8v-8.4zm-165.6-39S90.4 15.2 56.4 15s-42 18.4-42 44.8S24 103 56.5 102.5s36.8-24.8 36.8-24.8h44c-.6 9.9-4.8 19.2-11.9 26.1-12 11.6-32 12.5-32 12.5s9-2.4 18.1-11.6 9.1-12.6 9.1-12.6h-15.8s-10.6 24.8-52.7 24.8S0 82 0 57.5 9.4 1 54 1s50.8 32.3 50.8 32.3h15.8c-.5-6.5-2.8-12.8-6.7-18.1C107.4 6 93.4 1 93.4 1s23.6 3.9 33.2 16.3 10.7 30 10.7 30h-44zM64 18.5s-19.5 6.7-19.5 37.9 16.3 42.5 16.3 42.5-27.5 4.8-27.6-41.4C33 11.4 64 18.5 64 18.5z" id="svg_1" class="" fill="#ffffff" fill-opacity="1"/></g></svg>